<svg width="100" height="100" viewBox="0 0 100 100" fill="none" xmlns="http://www.w3.org/2000/svg">
<circle cx="67.5" cy="45.5" r="19.5" fill="#EB6E4B"/>
<circle cx="67.5" cy="45.5" r="19.5" fill="#EB6E4B"/>
<path d="M13 62C13 69.1797 18.8203 75 26 75H48.25H70.5C76.299 75 81 70.299 81 64.5C81 58.701 76.299 54 70.5 54C70.2019 54 69.9068 54.0124 69.615 54.0368C69.8652 53.2356 70 52.3836 70 51.5C70 46.8056 66.1944 43 61.5 43C59.6761 43 57.9864 43.5745 56.6019 44.5523C55.0442 37.9299 49.0978 33 42 33C33.7157 33 27 39.7157 27 48C27 48.3498 27.012 48.6968 27.0355 49.0406C26.6939 49.0137 26.3486 49 26 49C18.8203 49 13 54.8203 13 62Z" fill="#EAEAEA"/>
</svg>
