<svg width="100" height="100" viewBox="0 0 100 100" fill="none" xmlns="http://www.w3.org/2000/svg">
<path d="M13 58.7619C13 66.6254 19.3339 73 27.1471 73H51.3603H75.5735C81.8842 73 87 67.8513 87 61.5C87 55.1487 81.8842 50 75.5735 50C75.2492 50 74.928 50.0136 74.6105 50.0403C74.8827 49.1628 75.0294 48.2296 75.0294 47.2619C75.0294 42.1204 70.888 37.9524 65.7794 37.9524C63.7946 37.9524 61.9558 38.5815 60.4491 39.6525C58.754 32.3994 52.2829 27 44.5588 27C35.5436 27 28.2353 34.3553 28.2353 43.4286C28.2353 43.8117 28.2483 44.1918 28.274 44.5683C27.9022 44.5388 27.5264 44.5238 27.1471 44.5238C19.3339 44.5238 13 50.8984 13 58.7619Z" fill="#EAEAEA"/>
</svg>
