<svg width="100" height="100" viewBox="0 0 100 100" fill="none" xmlns="http://www.w3.org/2000/svg">
<path d="M27 49.5476C27 55.8726 32.1356 61 38.4706 61H58.1029H77.7353C82.8521 61 87 56.8586 87 51.75C87 46.6414 82.8521 42.5 77.7353 42.5C77.4723 42.5 77.2119 42.5109 76.9544 42.5324C77.1752 41.8266 77.2941 41.076 77.2941 40.2976C77.2941 36.1621 73.9363 32.8095 69.7941 32.8095C68.1848 32.8095 66.6939 33.3156 65.4722 34.177C64.0978 28.343 58.851 24 52.5882 24C45.2786 24 39.3529 29.9162 39.3529 37.2143C39.3529 37.5224 39.3635 37.8281 39.3843 38.131C39.0829 38.1073 38.7781 38.0952 38.4706 38.0952C32.1356 38.0952 27 43.2226 27 49.5476Z" fill="#48484A"/>
<path d="M13 62C13 69.1797 18.8203 75 26 75H48.25H70.5C76.299 75 81 70.299 81 64.5C81 58.701 76.299 54 70.5 54C70.2019 54 69.9068 54.0124 69.615 54.0368C69.8652 53.2356 70 52.3836 70 51.5C70 46.8056 66.1944 43 61.5 43C59.6761 43 57.9864 43.5745 56.6019 44.5523C55.0442 37.9299 49.0978 33 42 33C33.7157 33 27 39.7157 27 48C27 48.3498 27.012 48.6968 27.0355 49.0406C26.6939 49.0137 26.3486 49 26 49C18.8203 49 13 54.8203 13 62Z" fill="#EAEAEA"/>
</svg>
