<svg width="100" height="100" viewBox="0 0 100 100" fill="none" xmlns="http://www.w3.org/2000/svg">
<circle cx="67.5" cy="36.5" r="19.5" fill="#EB6E4B"/>
<path d="M13 53C13 60.1797 18.8203 66 26 66H48.25H70.5C76.299 66 81 61.299 81 55.5C81 49.701 76.299 45 70.5 45C70.2019 45 69.9068 45.0124 69.615 45.0368C69.8652 44.2356 70 43.3836 70 42.5C70 37.8056 66.1944 34 61.5 34C59.6761 34 57.9864 34.5745 56.6019 35.5523C55.0442 28.9299 49.0978 24 42 24C33.7157 24 27 30.7157 27 39C27 39.3498 27.012 39.6968 27.0355 40.0406C26.6939 40.0137 26.3486 40 26 40C18.8203 40 13 45.8203 13 53Z" fill="#EAEAEA"/>
<path d="M29.7183 76.0877L35.0873 62.2817M38.6831 83.1035L43.103 71.3169M49.6747 85.1073L55.9125 68.3256" stroke="#48484A" stroke-width="4.5" stroke-linecap="round" stroke-dasharray="7 7"/>
</svg>
