<svg width="100" height="100" viewBox="0 0 100 100" fill="none" xmlns="http://www.w3.org/2000/svg">
<path d="M27 42.5476C27 48.8726 32.1356 54 38.4706 54H58.1029H77.7353C82.8521 54 87 49.8586 87 44.75C87 39.6414 82.8521 35.5 77.7353 35.5C77.4723 35.5 77.2119 35.5109 76.9544 35.5324C77.1752 34.8266 77.2941 34.076 77.2941 33.2976C77.2941 29.1621 73.9363 25.8095 69.7941 25.8095C68.1848 25.8095 66.6939 26.3156 65.4722 27.177C64.0978 21.343 58.851 17 52.5882 17C45.2786 17 39.3529 22.9162 39.3529 30.2143C39.3529 30.5224 39.3635 30.8281 39.3843 31.131C39.0829 31.1073 38.7781 31.0952 38.4706 31.0952C32.1356 31.0952 27 36.2226 27 42.5476Z" fill="#48484A"/>
<path d="M13 55C13 62.1797 18.8203 68 26 68H48.25H70.5C76.299 68 81 63.299 81 57.5C81 51.701 76.299 47 70.5 47C70.2019 47 69.9068 47.0124 69.615 47.0368C69.8652 46.2356 70 45.3836 70 44.5C70 39.8056 66.1944 36 61.5 36C59.6761 36 57.9864 36.5745 56.6019 37.5523C55.0442 30.9299 49.0978 26 42 26C33.7157 26 27 32.7157 27 41C27 41.3498 27.012 41.6968 27.0355 42.0406C26.6939 42.0137 26.3486 42 26 42C18.8203 42 13 47.8203 13 55Z" fill="#EAEAEA"/>
<path d="M44 65.6171C39.6186 71.1143 30.4845 82.2869 29 83L34.2577 70.3714H29L35.4948 57H44L38.2783 65.6171H44Z" fill="#EB6E4B"/>
</svg>
