<svg width="100" height="100" viewBox="0 0 100 100" fill="none" xmlns="http://www.w3.org/2000/svg">
<path fill-rule="evenodd" clip-rule="evenodd" d="M47.1059 80.5C46.0652 91.1484 48.1059 92 49.6059 92H50.0001C51.5001 92 53.5408 91.1484 52.5001 80.5C64.0852 93.0119 70.0869 84.9085 56.5737 72.9079C52.4196 69.2188 52.601 66.0474 53.5 64C56.5737 57 66.5 62 66.5 75.5C66.5 84 79 82 73.5 69C83 77 93 69.5 76.5001 62.5C90.0003 60 87.3341 53.9581 83.4999 53.5C81.833 53.3008 79.358 54.1079 76.6619 54.987C70.2681 57.0719 62.6309 59.5622 61.5796 50V49C62.6309 39.4378 70.2681 41.9281 76.6619 44.013C79.358 44.8921 81.833 45.6992 83.4999 45.5C87.3341 45.0419 90.0003 39 76.5001 36.5C93 29.5 83 22 73.5 30C79 17 66.5 15 66.5 23.5C66.5 37 56.5737 42 53.5 35C52.601 32.9526 52.4196 29.7812 56.5737 26.0921C70.0869 14.0915 64.0852 5.98812 52.5001 18.5C53.5408 7.85161 51.5001 7 50.0001 7H49.6059C48.1059 7 46.0652 7.85161 47.1059 18.5C35.5208 5.98812 29.5191 14.0915 43.0322 26.0921C47.1864 29.7812 47.005 32.9526 46.106 35C43.0322 42 33.106 37 33.106 23.5C33.106 15 20.606 17 26.106 30C16.606 22 6.60596 29.5 23.1059 36.5C9.60569 39 12.2718 45.0419 16.1061 45.5C17.7729 45.6992 20.2479 44.8921 22.9441 44.013C29.3378 41.9281 36.9751 39.4378 38.0263 49V50C36.9751 59.5622 29.3378 57.0719 22.9441 54.987C20.2479 54.1079 17.7729 53.3008 16.1061 53.5C12.2718 53.9581 9.60569 60 23.1059 62.5C6.60596 69.5 16.606 77 26.106 69C20.606 82 33.106 84 33.106 75.5C33.106 62 43.0322 57 46.106 64C47.005 66.0474 47.1864 69.2188 43.0322 72.9079C29.5191 84.9085 35.5208 93.0119 47.1059 80.5ZM50 56C53.3137 56 56 53.3137 56 50C56 46.6863 53.3137 44 50 44C46.6863 44 44 46.6863 44 50C44 53.3137 46.6863 56 50 56Z" fill="#48484A"/>
</svg>
